<?xml version="1.0" encoding="utf-8"?>
<!-- Generator: Adobe Illustrator 19.2.1, SVG Export Plug-In . SVG Version: 6.00 Build 0)  -->
<svg version="1.1" id="Layer_1" xmlns="http://www.w3.org/2000/svg" xmlns:xlink="http://www.w3.org/1999/xlink" x="0px" y="0px"
	 viewBox="0 0 67.4 57.3" style="enable-background:new 0 0 67.4 57.3;" xml:space="preserve">
<style type="text/css">
	.st0{fill:#FBE200;}
</style>
<g id="Group_5563" transform="translate(-761 -1818.3)">
	<g id="Group_5561" transform="translate(785.003 1858.393)">
		<path id="Path_9693" class="st0" d="M11.7,0H8.4L0.3,14.1c-0.6,1-0.2,2.3,0.8,2.8c0.3,0.2,0.7,0.3,1,0.3h9.6L11.7,0z"/>
		<path id="Path_9694" class="st0" d="M8,0h3.2l8.1,14.1c0.6,1,0.2,2.3-0.8,2.8c-0.3,0.2-0.7,0.3-1,0.3H8V0z"/>
	</g>
	<g id="Group_5562" transform="translate(761 1818.3)">
		<path id="Rectangle_3868" class="st0" d="M9,0h49.5c5,0,9,4,9,9c0,0,0,0,0,0v29.3c0,5-4,9-9,9l0,0H9c-5,0-9-4-9-9V9C0,4,4,0,9,0z"
			/>
	</g>
</g>
</svg>
