<?xml version="1.0" encoding="utf-8"?>
<!-- Generator: Adobe Illustrator 19.2.1, SVG Export Plug-In . SVG Version: 6.00 Build 0)  -->
<svg version="1.1" id="Layer_1" xmlns="http://www.w3.org/2000/svg" xmlns:xlink="http://www.w3.org/1999/xlink" x="0px" y="0px"
	 viewBox="0 0 65.1 60.6" style="enable-background:new 0 0 65.1 60.6;" xml:space="preserve">
<style type="text/css">
	.st0{fill:#FBE200;}
	.st1{fill:#343434;}
	.st2{fill:#FFFFFF;}
</style>
<g id="Group_5565" transform="translate(22300.361 -2772.378)">
	<g id="Group_5564" transform="translate(-28 -6)">
		<path id="Path_7758" class="st0" d="M-22271.2,2830.5c-1.1,0.8-1.4,2.2-0.8,3.5c0.4,0.9,1,1.7,1.6,2.5c0.6,0.9,1.4,1.7,2.3,2.2
			c0.9,0.5,2.1,0.4,2.9-0.3c4.2-3,19.2-13.9,22.8-15.5c4.2-1.9,20.2-5.9,20.2-5.9l-23.1-24.9c0,0-4,17.4-9.8,24.1
			C-22259.8,2821.5-22267.9,2827.9-22271.2,2830.5z"/>
		<path id="Path_7759" class="st1" d="M-22257.5,2832.8c1.6-1.1,3.2-2.3,4.8-3.4c-3-2.3-5.4-5.3-7-8.8c-1.4,1.4-2.9,2.7-4.4,3.9
			C-22262.6,2827.9-22260.3,2830.7-22257.5,2832.8z"/>
		<path id="Path_7760" class="st0" d="M-22221.9,2793.7c7.6,9.6,9.2,21,3.5,25.6c-5.7,4.5-16.5,0.4-24.1-9.2
			c-7.6-9.6-9.2-21-3.5-25.6C-22240.3,2780-22229.5,2784.1-22221.9,2793.7z"/>
		<path id="Path_7761" class="st0" d="M-22222.6,2794.3c6.5,8.2,7.8,17.9,2.9,21.8c-4.9,3.9-14,0.4-20.5-7.8s-7.8-17.9-2.9-21.8
			S-22229.1,2786.2-22222.6,2794.3z"/>
		<path id="Path_7762" class="st2" d="M-22232.2,2804.2c-2.1-3.1-6-4.1-8.7-2.3c-0.9,0.6-1.6,1.5-2,2.5c0.8,1.3,1.6,2.6,2.6,3.9
			c1.6,2,3.5,3.9,5.6,5.4c0.5-0.1,0.9-0.4,1.3-0.6C-22230.6,2811.3-22230.1,2807.3-22232.2,2804.2z"/>
		<path id="Path_7783" class="st0" d="M-22220.4,2782.1c0.3,0.2-0.1,1.5-1,2.9c-0.9,1.4-1.8,2.4-2.1,2.2c-0.3-0.2,0.1-1.5,1-2.9
			C-22221.7,2782.9-22220.7,2781.9-22220.4,2782.1z"/>
		<path id="Path_7784" class="st0" d="M-22226.9,2778.4c0.3,0.2-0.1,1.5-0.8,2.9c-0.8,1.4-1.7,2.5-2,2.3c-0.3-0.2,0.1-1.5,0.8-2.9
			S-22227.2,2778.2-22226.9,2778.4z"/>
		<path id="Path_7785" class="st0" d="M-22209.6,2797.2c0.1,0.3-1,1.1-2.5,1.7s-2.9,0.8-3,0.4s1-1.1,2.5-1.7
			C-22211.1,2797-22209.7,2796.8-22209.6,2797.2z"/>
		<path id="Path_7786" class="st0" d="M-22207.2,2804.8c0.1,0.4-1.1,1-2.7,1.5c-1.6,0.5-2.9,0.5-3,0.2c-0.1-0.4,1.1-1,2.7-1.5
			C-22208.7,2804.6-22207.3,2804.5-22207.2,2804.8z"/>
		<path id="Path_7787" class="st0" d="M-22214,2789c0.2,0.3-0.7,1.3-2,2.3c-1.3,0.9-2.6,1.5-2.8,1.2c-0.2-0.3,0.7-1.3,2-2.3
			S-22214.2,2788.7-22214,2789z"/>
	</g>
</g>
</svg>
