<svg xmlns="http://www.w3.org/2000/svg" width="51.047" height="48.34" viewBox="0 0 51.047 48.34">
  <g id="Group_5572" data-name="Group 5572" transform="translate(22300.361 -2772.378)">
    <g id="Group_5564" data-name="Group 5564" transform="translate(-22300.361 2772.378)">
      <path id="Path_7758" data-name="Path 7758" d="M2.109,9.746A1.925,1.925,0,0,0,.217,11.232,9.3,9.3,0,0,0,0,13.226a5.051,5.051,0,0,0,.3,2.146,1.881,1.881,0,0,0,1.663,1.075c3.48.126,16.011.618,18.624,1.232,3.042.715,13.23,5.237,13.23,5.237L31.879,0s-9.359,7.586-15.3,8.765A86.02,86.02,0,0,1,2.109,9.746Z" transform="matrix(0.788, -0.616, 0.616, 0.788, 0, 30.283)" fill="#707070"/>
      <path id="Path_7759" data-name="Path 7759" d="M.5,7.377c1.295.062,2.645.131,3.969.208A15.5,15.5,0,0,1,4.394,0C3.068.125,1.714.211.414.272A13.974,13.974,0,0,0,.5,7.377Z" transform="matrix(0.788, -0.616, 0.616, 0.788, 12.042, 32.731)" fill="#fff"/>
      <path id="Path_7760" data-name="Path 7760" d="M17.862,14.93C17.927,23.215,13.981,29.962,9.049,30S.066,23.356,0,15.071,3.881.039,8.813,0,17.8,6.646,17.862,14.93Z" transform="matrix(0.788, -0.616, 0.616, 0.788, 17.801, 10.997)" fill="#707070"/>
      <path id="Path_7761" data-name="Path 7761" d="M15.195,12.7c.055,7.047-3.3,12.787-7.5,12.82S.056,19.868,0,12.82,3.3.033,7.5,0,15.139,5.653,15.195,12.7Z" transform="matrix(0.788, -0.616, 0.616, 0.788, 20.755, 11.526)" fill="#707070"/>
      <path id="Path_7762" data-name="Path 7762" d="M5.99,4.841A4.308,4.308,0,0,0,2.319.009a3.627,3.627,0,0,0-2.1.518A20.988,20.988,0,0,0,0,3.664,20.271,20.271,0,0,0,.712,8.881a3.538,3.538,0,0,0,.955.218A4.308,4.308,0,0,0,5.99,4.841Z" transform="matrix(0.788, -0.616, 0.616, 0.788, 26.394, 18.741)" fill="#fff"/>
      <path id="Path_7783" data-name="Path 7783" d="M3.78.119c.086.234-.689.734-1.731,1.117s-1.956.5-2.042.269S.7.772,1.738.388,3.694-.114,3.78.119Z" transform="matrix(0.788, -0.616, 0.616, 0.788, 38.994, 6.171)" fill="#707070"/>
      <path id="Path_7784" data-name="Path 7784" d="M3.7.1c.1.229-.646.772-1.665,1.214S.108,1.928.009,1.7.655.927,1.674.486,3.6-.128,3.7.1Z" transform="matrix(0.788, -0.616, 0.616, 0.788, 34.688, 3.605)" fill="#707070"/>
      <path id="Path_7785" data-name="Path 7785" d="M3.845,1.33c-.074.239-.993.165-2.054-.164S-.069.378,0,.14,1-.025,2.059.3,3.918,1.092,3.845,1.33Z" transform="matrix(0.788, -0.616, 0.616, 0.788, 45.52, 15.43)" fill="#707070"/>
      <path id="Path_7786" data-name="Path 7786" d="M3.737,1.611c-.093.231-1,.082-2.033-.332S-.086.34.008.109s1-.082,2.033.332S3.83,1.379,3.737,1.611Z" transform="matrix(0.788, -0.616, 0.616, 0.788, 47.038, 20.329)" fill="#707070"/>
      <path id="Path_7787" data-name="Path 7787" d="M4.015.567C4,.816,3.093.971,1.984.913S-.013.607,0,.358s.922-.4,2.031-.346S4.028.318,4.015.567Z" transform="matrix(0.788, -0.616, 0.616, 0.788, 42.879, 10.589)" fill="#707070"/>
    </g>
  </g>
</svg>
