<svg xmlns="http://www.w3.org/2000/svg" width="67.416" height="57.268" viewBox="0 0 67.416 57.268">
  <g id="Group_5563" data-name="Group 5563" transform="translate(-761 -1818.3)">
    <g id="Group_5561" data-name="Group 5561" transform="translate(785.003 1858.393)">
      <path id="Path_9693" data-name="Path 9693" d="M124.9,743.963H121.65l-8.13,14.079a2.066,2.066,0,0,0,1.788,3.1h9.59Z" transform="translate(-113.241 -743.963)" fill="#fbe200"/>
      <path id="Path_9694" data-name="Path 9694" d="M113.241,743.963h3.248l8.131,14.079a2.065,2.065,0,0,1-1.788,3.1h-9.591Z" transform="translate(-105.24 -743.963)" fill="#fbe200"/>
    </g>
    <g id="Group_5562" data-name="Group 5562" transform="translate(761 1818.3)">
      <path id="Rectangle_3868" data-name="Rectangle 3868" d="M8.968,0h49.48a8.968,8.968,0,0,1,8.968,8.968V38.3a8.971,8.971,0,0,1-8.971,8.971H8.972A8.972,8.972,0,0,1,0,38.3V8.968A8.968,8.968,0,0,1,8.968,0Z" transform="translate(0 0)" fill="#fbe200"/>
    </g>
  </g>
</svg>
