<svg xmlns="http://www.w3.org/2000/svg" width="24.155" height="21.444" viewBox="0 0 24.155 21.444">
  <g id="Group_5553" data-name="Group 5553" transform="translate(-78.97 -206.994)">
    <g id="Group_5551" data-name="Group 5551" transform="translate(86.126 214.214)">
      <path id="Path_9689" data-name="Path 9689" d="M106.714,239.927a4.887,4.887,0,0,0,1.389,3.423,4.457,4.457,0,0,1,1.5,3.078v.795a1.98,1.98,0,0,0,2.1,2.014l.017-14.223A4.894,4.894,0,0,0,106.714,239.927Z" transform="translate(-106.714 -235.012)" fill="#fff"/>
    </g>
    <g id="Group_5552" data-name="Group 5552" transform="translate(79.97 207.994)">
      <line id="Line_180" data-name="Line 180" y1="2.212" x2="2.212" transform="translate(3.244 16.699)" fill="none" stroke="#fff" stroke-linecap="round" stroke-linejoin="round" stroke-width="2"/>
      <line id="Line_181" data-name="Line 181" x2="3.128" transform="translate(0 11.077)" fill="none" stroke="#fff" stroke-linecap="round" stroke-linejoin="round" stroke-width="2"/>
      <line id="Line_182" data-name="Line 182" x2="2.212" y2="2.212" transform="translate(3.244 3.244)" fill="none" stroke="#fff" stroke-linecap="round" stroke-linejoin="round" stroke-width="2"/>
      <line id="Line_183" data-name="Line 183" y2="3.128" transform="translate(11.077)" fill="none" stroke="#fff" stroke-linecap="round" stroke-linejoin="round" stroke-width="2"/>
      <line id="Line_184" data-name="Line 184" x1="2.212" y2="2.212" transform="translate(16.698 3.244)" fill="none" stroke="#fff" stroke-linecap="round" stroke-linejoin="round" stroke-width="2"/>
      <line id="Line_185" data-name="Line 185" x1="3.127" transform="translate(19.027 11.077)" fill="none" stroke="#fff" stroke-linecap="round" stroke-linejoin="round" stroke-width="2"/>
      <line id="Line_186" data-name="Line 186" x1="2.212" y1="2.212" transform="translate(16.698 16.699)" fill="none" stroke="#fff" stroke-linecap="round" stroke-linejoin="round" stroke-width="2"/>
    </g>
    <g id="Group_5556" data-name="Group 5556" transform="translate(90.961 214.214)">
      <path id="Path_9689-2" data-name="Path 9689" d="M111.72,239.927a4.887,4.887,0,0,1-1.389,3.423,4.457,4.457,0,0,0-1.5,3.078v.795a1.98,1.98,0,0,1-2.1,2.014l-.017-14.223A4.894,4.894,0,0,1,111.72,239.927Z" transform="translate(-106.714 -235.012)" fill="#fff"/>
    </g>
  </g>
</svg>
