<svg xmlns="http://www.w3.org/2000/svg" width="75.458" height="71.456" viewBox="0 0 75.458 71.456">
  <g id="Group_5565" data-name="Group 5565" transform="translate(22300.361 -2772.378)">
    <g id="Group_5564" data-name="Group 5564" transform="translate(-28 -6)">
      <path id="Path_7758" data-name="Path 7758" d="M3.117,14.407a2.846,2.846,0,0,0-2.8,2.2A13.745,13.745,0,0,0,0,19.55a7.466,7.466,0,0,0,.45,3.172,2.78,2.78,0,0,0,2.458,1.589c5.144.187,23.667.913,27.53,1.821,4.5,1.057,19.557,7.742,19.557,7.742L47.124,0S33.289,11.213,24.506,12.956C17.674,14.313,7.361,14.425,3.117,14.407Z" transform="matrix(0.788, -0.616, 0.616, 0.788, -22272.361, 2823.142)" fill="#fbe200"/>
      <path id="Path_7759" data-name="Path 7759" d="M.742,10.905c1.914.092,3.909.193,5.867.307A22.91,22.91,0,0,1,6.494,0C4.535.184,2.534.312.612.4A20.656,20.656,0,0,0,.742,10.905Z" transform="matrix(0.788, -0.616, 0.616, 0.788, -22254.561, 2826.76)" fill="#343434"/>
      <path id="Path_7760" data-name="Path 7760" d="M26.4,22.07c.1,12.246-5.736,22.221-13.026,22.278S.1,34.524,0,22.278,5.737.057,13.028,0,26.307,9.824,26.4,22.07Z" transform="matrix(0.788, -0.616, 0.616, 0.788, -22246.049, 2794.634)" fill="#fbe200"/>
      <path id="Path_7761" data-name="Path 7761" d="M22.46,18.774c.082,10.417-4.879,18.9-11.081,18.951S.083,29.368,0,18.951,4.88.049,11.082,0,22.378,8.357,22.46,18.774Z" transform="matrix(0.788, -0.616, 0.616, 0.788, -22241.682, 2795.415)" fill="#fbe200"/>
      <path id="Path_7762" data-name="Path 7762" d="M8.854,7.156C9.12,3.444,6.691.247,3.428.013A5.362,5.362,0,0,0,.32.778,31.025,31.025,0,0,0,0,5.415a29.964,29.964,0,0,0,1.051,7.713,5.231,5.231,0,0,0,1.412.323C5.727,13.685,8.588,10.867,8.854,7.156Z" transform="matrix(0.788, -0.616, 0.616, 0.788, -22233.346, 2806.081)" fill="#fff"/>
      <path id="Path_7783" data-name="Path 7783" d="M5.588.176c.128.346-1.019,1.085-2.559,1.652s-2.891.744-3.019.4S1.028,1.141,2.569.574,5.461-.169,5.588.176Z" transform="matrix(0.788, -0.616, 0.616, 0.788, -22214.721, 2787.5)" fill="#fbe200"/>
      <path id="Path_7784" data-name="Path 7784" d="M5.466.15c.146.338-.955,1.141-2.461,1.794S.159,2.85.013,2.512.968,1.371,2.475.718,5.32-.188,5.466.15Z" transform="matrix(0.788, -0.616, 0.616, 0.788, -22221.086, 2783.708)" fill="#fbe200"/>
      <path id="Path_7785" data-name="Path 7785" d="M5.683,1.966c-.109.353-1.468.244-3.036-.242S-.1.559.007.207,1.475-.037,3.043.449,5.792,1.614,5.683,1.966Z" transform="matrix(0.788, -0.616, 0.616, 0.788, -22205.074, 2801.186)" fill="#fbe200"/>
      <path id="Path_7786" data-name="Path 7786" d="M5.524,2.381c-.137.341-1.483.122-3.005-.491S-.127.5.011.161,1.495.039,3.017.652,5.662,2.039,5.524,2.381Z" transform="matrix(0.788, -0.616, 0.616, 0.788, -22202.83, 2808.428)" fill="#fbe200"/>
      <path id="Path_7787" data-name="Path 7787" d="M5.935.838c-.019.368-1.363.6-3,.512S-.018.9,0,.53s1.363-.6,3-.512S5.954.47,5.935.838Z" transform="matrix(0.788, -0.616, 0.616, 0.788, -22208.979, 2794.03)" fill="#fbe200"/>
    </g>
  </g>
</svg>
