<svg xmlns="http://www.w3.org/2000/svg" width="14.663" height="10.331" viewBox="0 0 14.663 10.331">
  <g id="Group_1128" data-name="Group 1128" transform="translate(0 0)">
    <path id="Path_715" data-name="Path 715" d="M183.377,402.237a1.842,1.842,0,0,0-1.3-1.3,53.371,53.371,0,0,0-11.458,0,1.842,1.842,0,0,0-1.3,1.3,20.739,20.739,0,0,0,0,7.1,1.843,1.843,0,0,0,1.3,1.3,53.382,53.382,0,0,0,11.458,0,1.843,1.843,0,0,0,1.3-1.3,20.739,20.739,0,0,0,0-7.1Z" transform="translate(-169.02 -400.624)" fill="#fff" opacity="0.84"/>
    <path id="Path_716" data-name="Path 716" d="M191.852,416.671v-4.361l3.832,2.18Z" transform="translate(-186.02 -409.325)" fill="#c3271a"/>
  </g>
</svg>
