<svg id="Group_3653" data-name="Group 3653" xmlns="http://www.w3.org/2000/svg" width="48.04" height="51.726" viewBox="0 0 48.04 51.726">
  <path id="Path_3927" data-name="Path 3927" d="M567.987,676.747a12.07,12.07,0,1,0-17.115,10.964,3.542,3.542,0,0,0-.914,2.379v8.344a3.554,3.554,0,0,0,3.554,3.554h3.776a3.554,3.554,0,0,0,3.555-3.554V690.09a3.54,3.54,0,0,0-.654-2.053A12.072,12.072,0,0,0,567.987,676.747Z" transform="translate(-528.505 -651.558)" fill="#fbe200"/>
  <g id="Group_3464" data-name="Group 3464" transform="translate(0)">
    <g id="Group_3463" data-name="Group 3463">
      <path id="Path_3928" data-name="Path 3928" d="M581,658.271a1.219,1.219,0,0,0,.863-.357l3.368-3.368a1.22,1.22,0,0,0-1.726-1.726l-3.368,3.368a1.221,1.221,0,0,0,.863,2.084Z" transform="translate(-543.718 -646.386)" fill="#333"/>
      <path id="Path_3929" data-name="Path 3929" d="M566.023,648.926a1.218,1.218,0,0,0,1.495-.862l1.233-4.6a1.22,1.22,0,0,0-2.357-.631l-1.233,4.6A1.221,1.221,0,0,0,566.023,648.926Z" transform="translate(-537.51 -641.926)" fill="#333"/>
      <path id="Path_3930" data-name="Path 3930" d="M547.359,648.122a1.22,1.22,0,0,0,2.357-.632l-1.233-4.6a1.22,1.22,0,1,0-2.357.631Z" transform="translate(-529.452 -641.95)" fill="#333"/>
      <path id="Path_3931" data-name="Path 3931" d="M531.5,658.074a1.22,1.22,0,1,0,1.726-1.726l-3.369-3.368a1.22,1.22,0,0,0-1.725,1.726Z" transform="translate(-521.702 -646.454)" fill="#333"/>
      <path id="Path_3932" data-name="Path 3932" d="M518.146,673.386l4.6,1.233a1.22,1.22,0,0,0,.632-2.357l-4.6-1.233a1.22,1.22,0,1,0-.632,2.357Z" transform="translate(-517.242 -654.229)" fill="#333"/>
      <path id="Path_3933" data-name="Path 3933" d="M522.807,690.063l-4.6,1.233a1.22,1.22,0,1,0,.632,2.357l4.6-1.233a1.22,1.22,0,0,0-.631-2.357Z" transform="translate(-517.266 -662.287)" fill="#333"/>
      <path id="Path_3934" data-name="Path 3934" d="M594.476,691.078l-4.6-1.233a1.22,1.22,0,0,0-.632,2.357l4.6,1.233a1.235,1.235,0,0,0,.317.042,1.22,1.22,0,0,0,.315-2.4Z" transform="translate(-547.34 -662.195)" fill="#333"/>
      <path id="Path_3935" data-name="Path 3935" d="M589.5,674.443a1.231,1.231,0,0,0,.317-.042l4.6-1.233a1.22,1.22,0,0,0-.631-2.357l-4.6,1.233a1.221,1.221,0,0,0,.316,2.4Z" transform="translate(-547.316 -654.136)" fill="#333"/>
      <path id="Path_3936" data-name="Path 3936" d="M547.719,657.406a15.168,15.168,0,0,0-8.437,28.135,1.378,1.378,0,0,1,.675,1.184v1.969H538.9a2.283,2.283,0,0,0-2.28,2.28v2.443a2.282,2.282,0,0,0,2.28,2.28h.558v1.469A3.038,3.038,0,0,0,542.5,700.2h9.271a3.038,3.038,0,0,0,3.035-3.035V695.7h.557a2.282,2.282,0,0,0,2.281-2.28v-2.443a2.283,2.283,0,0,0-2.281-2.28h-1.053v-1.969a1.384,1.384,0,0,1,.678-1.187,15.175,15.175,0,0,0-7.266-28.132Zm4.643,39.76a.6.6,0,0,1-.594.594H542.5a.6.6,0,0,1-.595-.594V695.7h10.459Zm2.838-3.909H539.065v-2.122H555.2Zm-1.48-9.805a3.854,3.854,0,0,0-1.855,3.274v1.969H542.4v-1.969a3.8,3.8,0,0,0-1.85-3.272,12.727,12.727,0,0,1,7.079-23.608,12.813,12.813,0,0,1,12.231,12.823A12.65,12.65,0,0,1,553.721,683.451Z" transform="translate(-523.475 -648.475)" fill="#333"/>
      <path id="Path_3937" data-name="Path 3937" d="M551.427,667.2a9.481,9.481,0,0,0-9.47,9.47,1.22,1.22,0,1,0,2.44,0,7.038,7.038,0,0,1,7.03-7.03,1.22,1.22,0,1,0,0-2.44Z" transform="translate(-527.705 -652.625)" fill="#333"/>
      <path id="Path_3938" data-name="Path 3938" d="M545.645,688.312a1.22,1.22,0,1,0-2.206,1.043,9.408,9.408,0,0,0,.535.977,1.22,1.22,0,1,0,2.068-1.3A7.118,7.118,0,0,1,545.645,688.312Z" transform="translate(-528.283 -661.267)" fill="#333"/>
      <path id="Path_3939" data-name="Path 3939" d="M550.907,694.026c-.19-.1-.377-.21-.557-.327a1.22,1.22,0,1,0-1.333,2.044c.243.158.5.307.752.442a1.22,1.22,0,0,0,1.137-2.159Z" transform="translate(-530.459 -663.76)" fill="#333"/>
    </g>
  </g>
</svg>
