<svg xmlns="http://www.w3.org/2000/svg" width="17.438" height="16.753" viewBox="0 0 17.438 16.753">
  <g id="Group_5555" data-name="Group 5555" transform="translate(-332.532 -220.444)">
    <g id="Group_5554" data-name="Group 5554" transform="translate(332.532 220.444)">
      <path id="Path_9692" data-name="Path 9692" d="M345.58,237.2a1.7,1.7,0,0,1-.8-.2l-2.787-1.464a1.6,1.6,0,0,0-1.486,0L337.722,237a1.7,1.7,0,0,1-.8.2,1.717,1.717,0,0,1-1.69-2.008l.532-3.1a1.6,1.6,0,0,0-.46-1.414l-2.254-2.2A1.716,1.716,0,0,1,334,225.55l3.114-.452a1.6,1.6,0,0,0,1.2-.874l1.394-2.823a1.715,1.715,0,0,1,3.076,0l1.394,2.822a1.6,1.6,0,0,0,1.2.874l3.115.452a1.716,1.716,0,0,1,.951,2.926l-2.253,2.2a1.6,1.6,0,0,0-.46,1.414l.532,3.1a1.718,1.718,0,0,1-1.69,2.008Z" transform="translate(-332.532 -220.444)" fill="#fff"/>
    </g>
  </g>
</svg>
