<svg xmlns="http://www.w3.org/2000/svg" width="38.391" height="70.697" viewBox="0 0 38.391 70.697">
  <g id="Group_5147" data-name="Group 5147" transform="translate(-1062 -1818)">
    <path id="Path_8222" data-name="Path 8222" d="M-531.753,309.139l-1.692-.281V280.47c-.81-.041-1.458-.1-2.106-.1-8.621-.008-17.243.019-25.864-.036-1.423-.009-2.032.242-2.026,1.878.061,16.325.035,32.651.039,48.976,0,.538.056,1.076.1,1.865h2.022c5.381,0,10.761.017,16.142,0,.957,0,1.639.022,2.06,1.2.581,1.621,2.038,1.733,3.541,1.331,2.586-.693,5.171-1.39,7.789-2.094.047.3.091.476.1.652.3,5.717-.751,8.2-7.744,7.942-6.778-.246-13.572-.048-20.359-.057-3.613,0-5.461-1.751-5.466-5.371q-.041-29.991,0-59.983c0-3.459,1.907-5.257,5.4-5.261q11.465-.013,22.93,0c3.218.006,5.222,1.891,5.232,5.08.036,10.639.007,21.278,0,31.917A6.953,6.953,0,0,1-531.753,309.139ZM-548.46,340.67a3.2,3.2,0,0,0,3.2-3.1,3.271,3.271,0,0,0-3.256-3.252,3.24,3.24,0,0,0-3.094,3.213A3.177,3.177,0,0,0-548.46,340.67Zm-3.514-64.012,0,.547h7.029l0-.547Z" transform="translate(1627.236 1546.605)" fill="#fbe200"/>
    <path id="Path_8223" data-name="Path 8223" d="M-530.111,336.834c1.39-.742,2.625-.978,3.742.239a1.024,1.024,0,0,0,.935.119,2.611,2.611,0,0,1,3.468,1.019c2.7-1,3.657-.585,4.351,2.078.93,3.572,2.388,7.057,1.578,10.929-.168.805.522,1.81.877,2.7.333.831.749,1.629,1.246,2.694l-14,3.756c-.2-.229-.33-.313-.344-.413-.453-3.379-2.726-5.331-5.108-7.535-2.5-2.309-4.242-5.459-6.173-8.336a2.14,2.14,0,0,1,.729-3.063,2.227,2.227,0,0,1,3.133.365,14.085,14.085,0,0,0,2.437,2.321q-1.459-5.5-2.921-11c-.5-1.883-1.051-3.754-1.536-5.642-.461-1.8.093-3.043,1.465-3.436,1.551-.445,2.634.246,3.163,2.161C-532.06,329.419-531.116,333.062-530.111,336.834Z" transform="translate(1614.304 1519.999)" fill="#fbe200"/>
    <path id="Path_8224" data-name="Path 8224" d="M-542.115,304.448a11.117,11.117,0,0,1,9.424,6.418,11.416,11.416,0,0,1-.819,11.988c-.164.254-.333.583-.58.687a7.983,7.983,0,0,1-1.428.33c.039-.478-.091-1.072.145-1.413a10.7,10.7,0,0,0,2.159-6.3,9.955,9.955,0,0,0-8.4-9.825,9.927,9.927,0,0,0-11.172,7.572,9.887,9.887,0,0,0,6.2,11.508,5.832,5.832,0,0,1,1.2.415,8.983,8.983,0,0,1,1.159,1.1c-.554.2-1.181.668-1.649.543a11.191,11.191,0,0,1-8.491-8.249C-556.413,311.656-550.821,304.407-542.115,304.448Z" transform="translate(1621.9 1529.728)" fill="#fbe200"/>
    <path id="Path_8225" data-name="Path 8225" d="M-538.183,314.214a6.819,6.819,0,0,1,6.664,8.741c-.183.6-.918,1.039-1.4,1.553a5.828,5.828,0,0,1-.234-1.893,5.261,5.261,0,0,0-2.97-6.219,5.146,5.146,0,0,0-6.189,1.739c-1.56,2.234-1.252,4.73.715,6.824.388.413.42,1.158.616,1.751a5.244,5.244,0,0,1-1.892-.576,6.792,6.792,0,0,1-1.695-7.545A6.8,6.8,0,0,1-538.183,314.214Z" transform="translate(1616.924 1524.741)" fill="#fbe200"/>
  </g>
</svg>
