<svg xmlns="http://www.w3.org/2000/svg" width="46.679" height="51.249" viewBox="0 0 46.679 51.249">
  <g id="Group_5573" data-name="Group 5573" transform="translate(21210.969 -2560.742)">
    <circle id="Ellipse_3418" data-name="Ellipse 3418" cx="23.161" cy="23.161" r="23.161" transform="translate(-21210.969 2565.67)" fill="#707070"/>
    <circle id="Ellipse_3419" data-name="Ellipse 3419" cx="17.555" cy="17.555" r="17.555" transform="matrix(0.121, -0.993, 0.993, 0.121, -21207.363, 2604.125)" fill="#fff"/>
    <circle id="Ellipse_3420" data-name="Ellipse 3420" cx="12.539" cy="12.539" r="12.539" transform="translate(-21202.873 2579.477) rotate(-13.165)" fill="#707070"/>
    <path id="Path_7455" data-name="Path 7455" d="M836.787,274.5a8.63,8.63,0,1,1-8.63-8.629A8.63,8.63,0,0,1,836.787,274.5Z" transform="translate(-22015.965 2314.329)" fill="#fff"/>
    <path id="Path_7456" data-name="Path 7456" d="M835.086,277.448a3.983,3.983,0,1,1-3.983-3.983A3.983,3.983,0,0,1,835.086,277.448Z" transform="translate(-22018.912 2311.382)" fill="#707070"/>
    <path id="Path_7481" data-name="Path 7481" d="M863.351,236.32c-.49-.21-2.057-1.026-3.315,1.947-1.2,2.831-2.467,6.667-2.467,6.667s3.118-2.569,5.324-4.709C865.21,237.977,863.809,236.614,863.351,236.32Z" transform="translate(-22030.729 2325.898)" fill="#707070"/>
    <path id="Path_7482" data-name="Path 7482" d="M851.43,240.195l-3,3.086a21.673,21.673,0,0,0-2.445,3.016l-12.242,18.24,13.871-15.017a21.628,21.628,0,0,0,3.8-5.726l1.171-2.577A3.613,3.613,0,0,1,851.43,240.195Z" transform="translate(-22021.484 2324.293)" fill="#fbe200"/>
    <path id="Path_7483" data-name="Path 7483" d="M856.151,244.4s-2.017-5.624-.13-9.266,4.35,3.293,4.35,3.293Z" transform="translate(-22029.814 2326.668)" fill="#707070"/>
    <path id="Path_7484" data-name="Path 7484" d="M856.72,247.088s5.974-.01,8.76-3.02-4.572-2.975-4.572-2.975Z" transform="translate(-22030.4 2323.944)" fill="#707070"/>
  </g>
</svg>
