<svg xmlns="http://www.w3.org/2000/svg" width="25.375" height="46.729" viewBox="0 0 25.375 46.729">
  <g id="Group_5570" data-name="Group 5570" transform="translate(-1062 -1818)">
    <path id="Path_8222" data-name="Path 8222" d="M-543.1,296.343l-1.119-.186V277.393c-.536-.027-.964-.067-1.392-.068-5.7-.005-11.4.013-17.1-.024-.941-.006-1.343.16-1.339,1.241.04,10.791.023,21.582.026,32.372,0,.355.037.711.066,1.233h1.336c3.557,0,7.113.011,10.67,0,.633,0,1.084.015,1.361.79.384,1.071,1.347,1.146,2.341.88,1.709-.458,3.418-.919,5.149-1.384.031.2.06.315.066.431.2,3.779-.5,5.417-5.118,5.249-4.48-.162-8.971-.032-13.457-.038-2.388,0-3.61-1.157-3.613-3.55q-.027-19.824,0-39.647c0-2.287,1.261-3.475,3.571-3.478q7.578-.009,15.156,0a3.154,3.154,0,0,1,3.458,3.358c.024,7.032,0,14.064,0,21.1A4.6,4.6,0,0,1-543.1,296.343Zm-11.043,20.842a2.114,2.114,0,0,0,2.113-2.047,2.162,2.162,0,0,0-2.152-2.149,2.142,2.142,0,0,0-2.045,2.124A2.1,2.1,0,0,0-554.148,317.184Zm-2.323-42.31,0,.362h4.646l0-.362Z" transform="translate(1627.236 1546.605)" fill="#707070"/>
    <path id="Path_8223" data-name="Path 8223" d="M-533.433,332.314c.919-.49,1.735-.647,2.473.158a.677.677,0,0,0,.618.079,1.726,1.726,0,0,1,2.292.674c1.786-.661,2.417-.387,2.876,1.374.615,2.361,1.579,4.665,1.043,7.224-.111.532.345,1.2.58,1.784.22.549.495,1.077.824,1.78l-9.251,2.483c-.129-.151-.218-.207-.227-.273-.3-2.233-1.8-3.524-3.376-4.98a30.034,30.034,0,0,1-4.08-5.51,1.415,1.415,0,0,1,.482-2.024,1.472,1.472,0,0,1,2.071.241,9.313,9.313,0,0,0,1.611,1.534q-.965-3.635-1.931-7.27c-.333-1.244-.695-2.481-1.015-3.729-.3-1.189.061-2.011.969-2.271,1.025-.294,1.741.163,2.091,1.428C-534.721,327.413-534.1,329.821-533.433,332.314Z" transform="translate(1610.102 1511.354)" fill="#707070"/>
    <path id="Path_8224" data-name="Path 8224" d="M-546.411,304.448a7.348,7.348,0,0,1,6.229,4.242,7.545,7.545,0,0,1-.541,7.924c-.108.168-.22.386-.383.454a5.277,5.277,0,0,1-.944.218c.026-.316-.06-.708.1-.934a7.074,7.074,0,0,0,1.427-4.164,6.58,6.58,0,0,0-5.552-6.494,6.562,6.562,0,0,0-7.384,5.005,6.535,6.535,0,0,0,4.1,7.606,3.855,3.855,0,0,1,.794.274,5.946,5.946,0,0,1,.766.729c-.366.129-.781.442-1.09.359a7.4,7.4,0,0,1-5.612-5.452C-555.861,309.212-552.165,304.421-546.411,304.448Z" transform="translate(1620.166 1524.244)" fill="#707070"/>
    <path id="Path_8225" data-name="Path 8225" d="M-540.508,314.214a4.507,4.507,0,0,1,4.4,5.777c-.121.4-.607.687-.923,1.026a3.851,3.851,0,0,1-.155-1.251,3.477,3.477,0,0,0-1.963-4.111,3.4,3.4,0,0,0-4.091,1.149,3.381,3.381,0,0,0,.472,4.511c.256.273.278.766.407,1.157a3.467,3.467,0,0,1-1.251-.381,4.49,4.49,0,0,1-1.12-4.987A4.493,4.493,0,0,1-540.508,314.214Z" transform="translate(1613.573 1517.637)" fill="#707070"/>
  </g>
</svg>
