<svg xmlns="http://www.w3.org/2000/svg" width="71.955" height="78.998" viewBox="0 0 71.955 78.998">
  <g id="Group_5566" data-name="Group 5566" transform="translate(21210.969 -2560.742)">
    <circle id="Ellipse_3418" data-name="Ellipse 3418" cx="35.701" cy="35.701" r="35.701" transform="translate(-21210.969 2568.338)" fill="#fbe200"/>
    <circle id="Ellipse_3419" data-name="Ellipse 3419" cx="27.06" cy="27.06" r="27.06" transform="matrix(0.121, -0.993, 0.993, 0.121, -21205.41, 2627.616)" fill="#fff"/>
    <circle id="Ellipse_3420" data-name="Ellipse 3420" cx="19.329" cy="19.329" r="19.329" transform="translate(-21198.49 2589.621) rotate(-13.165)" fill="#fbe200"/>
    <path id="Path_7455" data-name="Path 7455" d="M846.132,279.174a13.3,13.3,0,1,1-13.3-13.3A13.3,13.3,0,0,1,846.132,279.174Z" transform="translate(-22008.096 2324.865)" fill="#fff"/>
    <path id="Path_7456" data-name="Path 7456" d="M839.4,279.6a6.14,6.14,0,1,1-6.14-6.14A6.14,6.14,0,0,1,839.4,279.6Z" transform="translate(-22008.527 2324.434)" fill="#fbe200"/>
    <path id="Path_7481" data-name="Path 7481" d="M866.482,236.462c-.755-.324-3.17-1.582-5.111,3-1.848,4.364-3.8,10.277-3.8,10.277s4.807-3.96,8.208-7.259C869.348,239.015,867.188,236.915,866.482,236.462Z" transform="translate(-22010.256 2326.556)" fill="#fff"/>
    <path id="Path_7482" data-name="Path 7482" d="M861.005,240.195l-4.619,4.757a33.411,33.411,0,0,0-3.768,4.649l-18.871,28.116,21.382-23.149a33.341,33.341,0,0,0,5.862-8.827l1.805-3.972A5.569,5.569,0,0,1,861.005,240.195Z" transform="translate(-22008.904 2326.321)" fill="#fff"/>
    <path id="Path_7483" data-name="Path 7483" d="M856.658,249.987s-3.109-8.669-.2-14.283,6.7,5.076,6.7,5.076Z" transform="translate(-22010.121 2326.668)" fill="#fff"/>
    <path id="Path_7484" data-name="Path 7484" d="M856.72,250.334s9.209-.016,13.5-4.655-7.048-4.586-7.048-4.586Z" transform="translate(-22010.209 2326.27)" fill="#fff"/>
  </g>
</svg>
