<svg xmlns="http://www.w3.org/2000/svg" width="16.248" height="15.269" viewBox="0 0 16.248 15.269">
  <g id="Group_3276" data-name="Group 3276" transform="translate(-168.5 -239)">
    <g id="Group_3273" data-name="Group 3273" transform="translate(169.479 239)">
      <g id="Group_3272" data-name="Group 3272" transform="translate(0)">
        <path id="Path_3576" data-name="Path 3576" d="M178.634,239a7.641,7.641,0,0,0-7.506,9.038.587.587,0,0,0,1.155-.214,6.558,6.558,0,0,1-.109-1.189,6.419,6.419,0,0,1,.251-1.762h2.208a14.446,14.446,0,0,0-.11,1.762.587.587,0,0,0,1.175,0,12.57,12.57,0,0,1,.128-1.762h2.221v8.192a6.452,6.452,0,0,1-1.332-.26.587.587,0,0,0-.348,1.122A7.635,7.635,0,1,0,178.634,239Zm-3.8,4.7h-1.942a6.492,6.492,0,0,1,3.1-2.952A8.977,8.977,0,0,0,174.83,243.7Zm3.217,0h-1.994c.4-1.618,1.1-2.965,1.994-3.385Zm6.334,0h-1.942a8.977,8.977,0,0,0-1.161-2.952A6.492,6.492,0,0,1,184.381,243.7Zm-5.159-3.385c.895.42,1.6,1.766,1.994,3.385h-1.994Zm0,4.559h2.221a12.224,12.224,0,0,1,0,3.524h-2.221Zm0,8.083v-3.385h1.994C180.821,251.189,180.116,252.536,179.222,252.955Zm2.056-.433a8.977,8.977,0,0,0,1.161-2.952h1.942A6.492,6.492,0,0,1,181.278,252.522Zm1.358-4.126a14.213,14.213,0,0,0,0-3.524h2.208a6.319,6.319,0,0,1,0,3.524Z" transform="translate(-171 -239)" fill="#fff"/>
      </g>
    </g>
    <g id="Group_3275" data-name="Group 3275" transform="translate(168.5 247.482)">
      <g id="Group_3274" data-name="Group 3274">
        <path id="Path_3577" data-name="Path 3577" d="M174.892,260.7l-6.157,2.684a.392.392,0,0,0-.023.707l1.249.645,3.719-2.587a.052.052,0,0,1,.082.041l-3.116,2.974a.391.391,0,0,0-.121.283v1.377a.391.391,0,0,0,.725.2l.756-1.237,1.6.826a.392.392,0,0,0,.56-.256l1.263-5.21A.392.392,0,0,0,174.892,260.7Z" transform="translate(-168.5 -260.665)" fill="#fff"/>
      </g>
    </g>
  </g>
</svg>
