<svg xmlns="http://www.w3.org/2000/svg" width="38.357" height="41.299" viewBox="0 0 38.357 41.299">
  <g id="Group_5167" data-name="Group 5167" transform="translate(-1 -3)">
    <g id="Group_3464" data-name="Group 3464" transform="translate(1 3)">
      <g id="Group_3463" data-name="Group 3463">
        <path id="Path_3928" data-name="Path 3928" d="M580.755,657.1a.973.973,0,0,0,.689-.285l2.689-2.689a.974.974,0,0,0-1.378-1.378l-2.689,2.689a.975.975,0,0,0,.689,1.664Z" transform="translate(-550.987 -647.611)" fill="#fbe200"/>
        <path id="Path_3929" data-name="Path 3929" d="M565.841,647.515a.973.973,0,0,0,1.193-.689l.984-3.674a.974.974,0,0,0-1.882-.5l-.984,3.674A.975.975,0,0,0,565.841,647.515Z" transform="translate(-543.075 -641.926)" fill="#fbe200"/>
        <path id="Path_3930" data-name="Path 3930" d="M547.1,646.885a.974.974,0,1,0,1.882-.5L548,642.707a.974.974,0,1,0-1.882.5Z" transform="translate(-532.805 -641.957)" fill="#fbe200"/>
        <path id="Path_3931" data-name="Path 3931" d="M530.753,656.975a.974.974,0,1,0,1.378-1.378l-2.69-2.689a.974.974,0,1,0-1.377,1.378Z" transform="translate(-522.927 -647.697)" fill="#fbe200"/>
        <path id="Path_3932" data-name="Path 3932" d="M517.964,672.9l3.674.985a.974.974,0,0,0,.5-1.882l-3.674-.984a.974.974,0,1,0-.5,1.882Z" transform="translate(-517.242 -657.607)" fill="#fbe200"/>
        <path id="Path_3933" data-name="Path 3933" d="M521.7,690.055l-3.674.984a.974.974,0,1,0,.5,1.882l3.673-.984a.974.974,0,1,0-.5-1.882Z" transform="translate(-517.273 -667.878)" fill="#fbe200"/>
        <path id="Path_3934" data-name="Path 3934" d="M593.239,690.821l-3.674-.984a.974.974,0,0,0-.5,1.882l3.674.984a.987.987,0,0,0,.253.033.974.974,0,0,0,.251-1.915Z" transform="translate(-555.604 -667.76)" fill="#fbe200"/>
        <path id="Path_3935" data-name="Path 3935" d="M589.254,673.7a.983.983,0,0,0,.253-.034l3.674-.984a.974.974,0,0,0-.5-1.882l-3.674.984a.975.975,0,0,0,.252,1.916Z" transform="translate(-555.573 -657.489)" fill="#fbe200"/>
        <path id="Path_3936" data-name="Path 3936" d="M544.544,657.4a12.111,12.111,0,0,0-6.736,22.464,1.1,1.1,0,0,1,.539.946v1.572h-.84a1.823,1.823,0,0,0-1.821,1.82v1.95a1.822,1.822,0,0,0,1.821,1.82h.445v1.173a2.426,2.426,0,0,0,2.423,2.423h7.4a2.426,2.426,0,0,0,2.423-2.423v-1.173h.445a1.822,1.822,0,0,0,1.821-1.82v-1.95a1.822,1.822,0,0,0-1.821-1.82H549.8v-1.572a1.1,1.1,0,0,1,.541-.948,12.116,12.116,0,0,0-5.8-22.462Zm3.707,31.746a.475.475,0,0,1-.474.475h-7.4a.475.475,0,0,1-.475-.475v-1.173h8.351Zm2.266-3.121H537.634v-1.694h12.883Zm-1.181-7.829a3.077,3.077,0,0,0-1.481,2.614v1.572h-7.56v-1.572a3.035,3.035,0,0,0-1.477-2.612,10.162,10.162,0,0,1,5.652-18.85,10.23,10.23,0,0,1,9.765,10.238A10.1,10.1,0,0,1,549.336,678.2Z" transform="translate(-525.187 -650.273)" fill="#fbe200"/>
        <path id="Path_3937" data-name="Path 3937" d="M549.518,667.2a7.57,7.57,0,0,0-7.561,7.561.974.974,0,1,0,1.948,0,5.619,5.619,0,0,1,5.613-5.613.974.974,0,1,0,0-1.948Z" transform="translate(-530.578 -655.562)" fill="#fbe200"/>
        <path id="Path_3938" data-name="Path 3938" d="M545.177,688.171a.974.974,0,0,0-1.762.833,7.508,7.508,0,0,0,.427.78.974.974,0,1,0,1.651-1.034A5.676,5.676,0,0,1,545.177,688.171Z" transform="translate(-531.314 -666.578)" fill="#fbe200"/>
        <path id="Path_3939" data-name="Path 3939" d="M550.414,693.92c-.151-.079-.3-.167-.445-.261a.974.974,0,1,0-1.064,1.632c.194.126.4.245.6.353a.974.974,0,0,0,.908-1.724Z" transform="translate(-534.088 -669.755)" fill="#fbe200"/>
      </g>
    </g>
  </g>
</svg>
