<svg xmlns="http://www.w3.org/2000/svg" width="57.113" height="36.735" viewBox="0 0 57.113 36.735">
  <g id="Group_5575" data-name="Group 5575" transform="translate(-929.282 -740.025)">
    <path id="Path_9695" data-name="Path 9695" d="M978.694,744.029c-.453,1.1-.727,1.9-1.1,2.645q-7.352,14.75-14.723,29.492c-.8,1.607-1.733,3.176-3.817,2.382-1.769-.675-2.19-2.175-1.32-3.918,5.191-10.4,10.336-20.819,15.671-31.142.45-.871,2.169-1.418,3.324-1.462C977.368,742,978.057,743.337,978.694,744.029Z" transform="translate(-9.018 -2)" fill="#fff"/>
    <path id="Path_9696" data-name="Path 9696" d="M1003.743,762.183c-3.086-2.935-5.841-5.562-8.6-8.181-1.445-1.37-2.424-2.962-.712-4.627,1.588-1.544,3.073-.548,4.378.774,3.2,3.242,6.407,6.478,9.661,9.667,1.708,1.673,1.736,3.242.048,4.917-3.385,3.358-6.65,6.847-10.2,10.025a4.037,4.037,0,0,1-3.775.413c-1.639-1.026-1.2-2.765.1-4.063C997.487,768.264,1000.383,765.471,1003.743,762.183Z" transform="translate(-23.369 -2.391)" fill="#fff"/>
    <path id="Path_9697" data-name="Path 9697" d="M935.142,762.2c3.47,3.336,6.286,6.039,9.1,8.749,1.271,1.224,1.994,2.632.576,4.13-1.543,1.632-3.015.9-4.362-.452-3.277-3.3-6.537-6.607-9.867-9.848-1.869-1.82-1.642-3.4.132-5.121,3.256-3.165,6.449-6.4,9.646-9.621,1.341-1.353,2.828-2.1,4.385-.558,1.622,1.608.676,3.079-.667,4.346C941.249,756.5,938.4,759.151,935.142,762.2Z" transform="translate(0 -2.401)" fill="#fff"/>
  </g>
</svg>
