<svg xmlns="http://www.w3.org/2000/svg" width="22.516" height="23.046" viewBox="0 0 22.516 23.046">
  <g id="Group_5153" data-name="Group 5153" transform="translate(0 0)">
    <path id="Path_4243" data-name="Path 4243" d="M97.108,195.891a7.119,7.119,0,1,0-11.688,5.453v2.291a.574.574,0,0,0,.31.509,9.085,9.085,0,0,0,.96.426v1.992a.572.572,0,0,0,.431.555,11.658,11.658,0,0,0,5.638.025.572.572,0,0,0,.437-.556V204.6c.2-.075.409-.147.608-.237a.572.572,0,0,0,.337-.522v-2.175A7.107,7.107,0,0,0,97.108,195.891ZM92.05,206.128a10.613,10.613,0,0,1-4.216-.02v-1.185a9.238,9.238,0,0,0,4.216.02Zm.945-2.669a8.2,8.2,0,0,1-6.431-.18V202.13a7.065,7.065,0,0,0,6.431.2Zm-1.379-1.824v-4.95a.572.572,0,1,0-1.145,0v5.156c-.16.013-.32.025-.483.025a5.863,5.863,0,0,1-.691-.044v-5.137a.572.572,0,1,0-1.145,0v4.889a5.977,5.977,0,1,1,3.464.061Z" transform="translate(-78.684 -184.43)" fill="#fff"/>
    <path id="Path_4244" data-name="Path 4244" d="M90.693,186.954a.573.573,0,0,0,.573-.573V184.5a.572.572,0,1,0-1.145,0v1.881A.572.572,0,0,0,90.693,186.954Z" transform="translate(-79.435 -183.928)" fill="#fff"/>
    <path id="Path_4245" data-name="Path 4245" d="M83.668,189.185a.572.572,0,0,0,.877-.736l-1.209-1.441a.572.572,0,0,0-.877.736Z" transform="translate(-78.627 -184.226)" fill="#fff"/>
    <path id="Path_4246" data-name="Path 4246" d="M80.627,195.489a.573.573,0,0,0,.1-1.137l-1.853-.326a.572.572,0,1,0-.2,1.127l1.853.327A.55.55,0,0,0,80.627,195.489Z" transform="translate(-78.2 -184.973)" fill="#fff"/>
    <path id="Path_4247" data-name="Path 4247" d="M81.594,201.221l-1.63.941a.573.573,0,1,0,.573.991l1.629-.94a.573.573,0,0,0-.572-.992Z" transform="translate(-78.353 -185.711)" fill="#fff"/>
    <path id="Path_4248" data-name="Path 4248" d="M97.14,189.389a.569.569,0,0,0,.439-.2l1.208-1.441a.572.572,0,0,0-.876-.736L96.7,188.449a.572.572,0,0,0,.437.94Z" transform="translate(-80.103 -184.226)" fill="#fff"/>
    <path id="Path_4249" data-name="Path 4249" d="M102.3,194.026l-1.853.326a.573.573,0,0,0,.1,1.137.55.55,0,0,0,.1-.009l1.853-.327a.572.572,0,0,0-.2-1.127Z" transform="translate(-80.456 -184.973)" fill="#fff"/>
    <path id="Path_4250" data-name="Path 4250" d="M101.233,202.162l-1.629-.941a.573.573,0,0,0-.573.992l1.63.94a.572.572,0,0,0,.572-.991Z" transform="translate(-80.328 -185.711)" fill="#fff"/>
  </g>
</svg>
