<svg xmlns="http://www.w3.org/2000/svg" width="22.644" height="19.106" viewBox="0 0 22.644 19.106">
  <g id="Group_5558" data-name="Group 5558" transform="translate(18222.068 67.399)">
    <g id="Group_5550" data-name="Group 5550" transform="translate(-18222.068 -67.399)">
      <path id="Path_9686" data-name="Path 9686" d="M700.382,106.884a.964.964,0,0,1-.626-.273l-.71-.708a5.943,5.943,0,0,0-8.4,8.405l8.422,8.4a1.944,1.944,0,0,0,1.318.565Z" transform="translate(-688.901 -104.164)" fill="#fff"/>
    </g>
    <g id="Group_5557" data-name="Group 5557" transform="translate(-18210.904 -67.399)">
      <path id="Path_9686-2" data-name="Path 9686" d="M688.9,106.884a.963.963,0,0,0,.626-.273l.71-.708a5.943,5.943,0,0,1,8.4,8.405l-8.421,8.4a1.944,1.944,0,0,1-1.318.565Z" transform="translate(-688.901 -104.164)" fill="#fff"/>
    </g>
  </g>
</svg>
