<svg xmlns="http://www.w3.org/2000/svg" width="15.373" height="14.347" viewBox="0 0 15.373 14.347">
  <path id="Path_728" data-name="Path 728" d="M86.147,310.378v0s-.007,0-.014-.011h0a1.9,1.9,0,0,0-.488-.177s-.007,0-.007,0a4.184,4.184,0,0,1-2-1.459,4.605,4.605,0,0,1-.685-1.2v-.007a.58.58,0,0,1,.025-.512,0,0,0,0,0,0,0,1.428,1.428,0,0,1,.689-.438h0a2.665,2.665,0,0,0,.932-.481s0,0,.007,0a.548.548,0,0,0,.134-.173.266.266,0,0,0,.021-.063.345.345,0,0,0-.017-.244v0a.75.75,0,0,0-.325-.311h0a.673.673,0,0,0-.558-.049h0a3.636,3.636,0,0,1-.494.145.013.013,0,0,0-.011,0,1.144,1.144,0,0,1-.561-.014c0-.021,0-.067-.011-.124h0c-.014-.339.018-.689.021-1.053v0a9.68,9.68,0,0,0-.042-1.688V302.5a3.786,3.786,0,0,0-1.583-2.346,3.977,3.977,0,0,0-1.936-.689h0c-.237-.021-.467-.028-.7-.028a4.332,4.332,0,0,0-2.646.841,4.271,4.271,0,0,0-1.29,1.682v0a4.766,4.766,0,0,0-.208,2.052h0a9.655,9.655,0,0,1,.032,1.349.209.209,0,0,1-.007.029,1.837,1.837,0,0,1-.664-.018h0a4.926,4.926,0,0,1-.509-.141.013.013,0,0,1-.011,0,.608.608,0,0,0-.494.113s-.007,0-.007,0-.007,0-.007.007a.507.507,0,0,0-.272.406.154.154,0,0,0,0,.039s0,0,0,0a.472.472,0,0,0,.169.275c.071.06.134.1.173.131,0,0,.007,0,.011.007a4.979,4.979,0,0,0,1.042.452h0a.75.75,0,0,1,.466.445,1.272,1.272,0,0,1-.184.8v0a4.915,4.915,0,0,1-1.582,1.812,3.808,3.808,0,0,1-1.162.53.068.068,0,0,0-.018.007.658.658,0,0,0-.413.24c-.007.014-.014.028-.021.046a.354.354,0,0,0,.067.325.554.554,0,0,0,.177.138s.007,0,.011,0a4.067,4.067,0,0,0,1.074.374,0,0,0,0,1,0,0,3.729,3.729,0,0,1,.671.166c.007.014.028.078.07.184.064.191.092.413.162.65a.2.2,0,0,0,.145.131.384.384,0,0,0,.258-.021H73.6a4.2,4.2,0,0,1,1.7-.06h0a6.722,6.722,0,0,1,1.593.862v0h0a2.609,2.609,0,0,0,1.272.466h0a8.993,8.993,0,0,0,1.077-.025h.007a1.974,1.974,0,0,0,.847-.29s.007-.007.011-.007c.576-.329,1.085-.721,1.646-.968h0a2.727,2.727,0,0,1,.661-.078h.007a8.715,8.715,0,0,1,1.392.071.1.1,0,0,0,.046,0,.262.262,0,0,0,.159-.088.212.212,0,0,0,.049-.1c.014-.046.025-.067,0-.028a.177.177,0,0,0,.018-.039,1.912,1.912,0,0,1,.268-.685.409.409,0,0,1,.286-.088h.025a5.019,5.019,0,0,0,1.106-.311.023.023,0,0,1,.014,0,.972.972,0,0,0,.449-.3v0h0a.316.316,0,0,0-.1-.452Z" transform="translate(-70.927 -299.434)" fill="#fff" fill-rule="evenodd" opacity="0.84"/>
</svg>
