<svg xmlns="http://www.w3.org/2000/svg" width="48.97" height="52.407" viewBox="0 0 48.97 52.407">
  <path id="Path_7369" data-name="Path 7369" d="M121.7,394.632H92.645A10.781,10.781,0,0,0,81.876,405.4v39.766a1.872,1.872,0,0,0,1.872,1.872H121.7a9.16,9.16,0,0,0,9.148-9.151v-34.1A9.162,9.162,0,0,0,121.7,394.632Zm-29.052,3.746H121.7a5.412,5.412,0,0,1,5.405,5.405v2.387a9.079,9.079,0,0,0-5.405-1.805H85.724A7.015,7.015,0,0,1,92.645,398.378ZM121.7,443.293H85.619V408.111H121.7a5.411,5.411,0,0,1,5.405,5.405v5.634H113.2a6.209,6.209,0,1,0,0,12.418h13.9v6.32A5.411,5.411,0,0,1,121.7,443.293Zm5.405-15.472H113.2a2.464,2.464,0,1,1,0-4.928h13.9Z" transform="translate(-81.876 -394.632)" fill="#fff"/>
</svg>
