<svg xmlns="http://www.w3.org/2000/svg" width="13.853" height="11.258" viewBox="0 0 13.853 11.258">
  <path id="Path_718" data-name="Path 718" d="M74.222,110.43a8.083,8.083,0,0,0,12.434-7.177,5.756,5.756,0,0,0,1.418-1.471,5.662,5.662,0,0,1-1.632.447,2.847,2.847,0,0,0,1.249-1.572,5.7,5.7,0,0,1-1.8.69,2.844,2.844,0,0,0-4.843,2.592,8.066,8.066,0,0,1-5.858-2.97,2.846,2.846,0,0,0,.88,3.795,2.839,2.839,0,0,1-1.288-.356,2.845,2.845,0,0,0,2.28,2.823,2.846,2.846,0,0,1-1.283.049,2.843,2.843,0,0,0,2.654,1.974A5.711,5.711,0,0,1,74.222,110.43Z" transform="translate(-74.222 -100.449)" fill="#fff" opacity="0.84"/>
</svg>
