<svg xmlns="http://www.w3.org/2000/svg" width="42.186" height="68.405" viewBox="0 0 42.186 68.405">
  <path id="Path_7356" data-name="Path 7356" d="M425.422,106.836a15.543,15.543,0,1,0-18.688,0,13.924,13.924,0,0,0-11.75,13.727v25.075a1.669,1.669,0,0,0,1.67,1.67H435.5a1.669,1.669,0,0,0,1.67-1.67V120.563A13.924,13.924,0,0,0,425.422,106.836ZM403.872,94.443a12.2,12.2,0,1,1,12.205,12.205A12.217,12.217,0,0,1,403.872,94.443Zm29.959,49.524h-5.943V123.882a1.669,1.669,0,1,0-3.338,0v20.086H407.6V123.882a1.669,1.669,0,1,0-3.338,0v20.086h-5.943v-23.4A10.59,10.59,0,0,1,408.9,109.987h14.352a10.59,10.59,0,0,1,10.579,10.576Z" transform="translate(-394.983 -78.903)" fill="#fff"/>
</svg>
