<svg xmlns="http://www.w3.org/2000/svg" width="14.462" height="13.397" viewBox="0 0 14.462 13.397">
  <path id="Path_3575" data-name="Path 3575" d="M188.982,468.591s.793-1.386,1.439-1.465,1.479-.079,1.7.343,1.228,2.879,1.228,2.879a.965.965,0,0,1-.093.831,8.18,8.18,0,0,1-.857,1,.733.733,0,0,0,0,.871,15.887,15.887,0,0,0,1.9,2.332,10.366,10.366,0,0,0,3.089,1.813.618.618,0,0,0,.475-.145c.185-.185,1.188-1.439,1.188-1.439a.7.7,0,0,1,.858-.171c.534.244,2.851,1.4,2.851,1.4a.5.5,0,0,1,.271.508,3.267,3.267,0,0,1-.5,1.749,4.032,4.032,0,0,1-2.816,1.382,12.43,12.43,0,0,1-6.918-3.1c-1.888-1.889-3.564-3.8-3.96-5.545S188.494,469.309,188.982,468.591Z" transform="translate(-188.574 -467.085)" fill="#fff"/>
</svg>
