<?xml version="1.0" encoding="utf-8"?>
<!-- Generator: Adobe Illustrator 19.2.1, SVG Export Plug-In . SVG Version: 6.00 Build 0)  -->
<svg version="1.1" id="Layer_1" xmlns="http://www.w3.org/2000/svg" xmlns:xlink="http://www.w3.org/1999/xlink" x="0px" y="0px"
	 viewBox="0 0 14.1 13.4" style="enable-background:new 0 0 14.1 13.4;" xml:space="preserve">
<style type="text/css">
	.st0{fill:#FFFFFF;}
</style>
<g id="Group_9" transform="translate(-173.625 -122.97)">
	<g id="Group_6" transform="translate(173.625 122.97)">
		<path id="Path_5" class="st0" d="M9.7,13.4H4.3C1.9,13.4,0,11.5,0,9.1V4.3C0,1.9,1.9,0,4.3,0h5.4c2.4,0,4.3,1.9,4.3,4.3v4.7
			C14.1,11.5,12.1,13.4,9.7,13.4z M4.3,1C2.5,1,1,2.5,1,4.3v4.7c0,1.9,1.5,3.4,3.4,3.4h5.4c1.9,0,3.4-1.5,3.4-3.4V4.3
			c0-1.9-1.5-3.4-3.4-3.4L4.3,1z"/>
	</g>
	<g id="Group_7" transform="translate(176.796 125.821)">
		<path id="Path_6" class="st0" d="M3.9,7.7C1.7,7.7,0,6,0,3.9S1.7,0,3.9,0s3.9,1.7,3.9,3.9l0,0C7.7,6,6,7.7,3.9,7.7z M3.9,1
			C2.3,1,1,2.3,1,3.9s1.3,2.9,2.9,2.9s2.9-1.3,2.9-2.9v0C6.8,2.3,5.5,1,3.9,1z"/>
	</g>
	<g id="Group_8" transform="translate(183.658 125.139)">
		<path id="Path_7" class="st0" d="M1.6,0.8c0,0.4-0.4,0.8-0.8,0.8C0.4,1.6,0,1.2,0,0.8C0,0.4,0.4,0,0.8,0C1.2,0,1.6,0.4,1.6,0.8
			L1.6,0.8z"/>
	</g>
</g>
</svg>
