<?xml version="1.0" encoding="utf-8"?>
<!-- Generator: Adobe Illustrator 19.2.1, SVG Export Plug-In . SVG Version: 6.00 Build 0)  -->
<svg version="1.1" id="Layer_1" xmlns="http://www.w3.org/2000/svg" xmlns:xlink="http://www.w3.org/1999/xlink" x="0px" y="0px"
	 viewBox="0 0 10.4 8.4" style="enable-background:new 0 0 10.4 8.4;" xml:space="preserve">
<style type="text/css">
	.st0{fill:#5B5B5B;}
	.st1{fill:#FFFFFF;}
</style>
<g id="Group_12" transform="translate(-167.975 -618.923)">
	<path id="Path_12" class="st1" d="M177.6,620.1c-0.1,0-0.3,0.1-0.4,0.1l0,0c0.3-0.3,0.6-0.6,0.8-0.9c0-0.1,0-0.1,0-0.1l-0.7,0.3
		l-0.6,0.3l0,0c-0.4-0.4-1-0.7-1.6-0.7c-1.1-0.1-2,0.8-2.1,1.9c0,0.2,0,0.5,0.1,0.7c0,0.1,0-0.1,0,0c-0.9-0.1-1.8-0.3-2.6-0.8
		c-1.7-0.9-1.8-1.5-1.8-1.5c-0.3,0.6-0.4,1.3-0.1,2c0.2,0.4,0.4,0.7,0.8,0.9l0,0c-0.2,0-0.4,0-0.5-0.1c-0.1,0-0.3-0.1-0.4-0.2
		c-0.2,0.4,0.2,1.1,0.7,1.6c0.3,0.2,0.6,0.4,0.9,0.5l-1,0c-0.1,0.9,2,1.5,2,1.5l0,0c-0.6,0.5-1.3,0.7-2,0.7c-0.4,0-0.7-0.1-1.1-0.2
		c1,0.9,2.3,1.3,3.6,1.3c3.6-0.2,5.6-3.3,5.7-6.3v0c0.2-0.1,0.4-0.3,0.5-0.4c0.2-0.2,0.4-0.5,0.6-0.8
		C178.4,619.8,177.8,620.1,177.6,620.1z"/>
</g>
</svg>
