<?xml version="1.0" encoding="utf-8"?>
<!-- Generator: Adobe Illustrator 19.2.1, SVG Export Plug-In . SVG Version: 6.00 Build 0)  -->
<svg version="1.1" id="Layer_1" xmlns="http://www.w3.org/2000/svg" xmlns:xlink="http://www.w3.org/1999/xlink" x="0px" y="0px"
	 viewBox="0 0 25.4 46.7" style="enable-background:new 0 0 25.4 46.7;" xml:space="preserve">
<style type="text/css">
	.st0{fill:#FBE200;}
</style>
<g id="Group_5570" transform="translate(-1062 -1818)">
	<path id="Path_8222" class="st0" d="M1084.1,1842.9l-1.1-0.2V1824c-0.5,0-1-0.1-1.4-0.1c-5.7,0-11.4,0-17.1,0
		c-0.9,0-1.3,0.2-1.3,1.2c0,10.8,0,21.6,0,32.4c0,0.4,0,0.7,0.1,1.2h1.3c3.6,0,7.1,0,10.7,0c0.6,0,1.1,0,1.4,0.8
		c0.4,1.1,1.3,1.1,2.3,0.9c1.7-0.5,3.4-0.9,5.1-1.4c0,0.2,0.1,0.3,0.1,0.4c0.2,3.8-0.5,5.4-5.1,5.2c-4.5-0.2-9,0-13.5,0
		c-2.4,0-3.6-1.2-3.6-3.6c0-13.2,0-26.4,0-39.6c0-2.3,1.3-3.5,3.6-3.5c5.1,0,10.1,0,15.2,0c1.7-0.2,3.3,1.1,3.5,2.8
		c0,0.2,0,0.4,0,0.5c0,7,0,14.1,0,21.1C1084.2,1842.6,1084.2,1842.8,1084.1,1842.9z M1073.1,1863.8c1.1,0,2.1-0.9,2.1-2
		c0-1.2-1-2.1-2.2-2.1c-1.1,0.1-2,1-2,2.1C1071,1862.9,1071.9,1863.8,1073.1,1863.8L1073.1,1863.8z M1070.8,1821.5v0.4h4.6v-0.4
		H1070.8z"/>
	<path id="Path_8223" class="st0" d="M1076.7,1843.7c0.9-0.5,1.7-0.6,2.5,0.2c0.2,0.1,0.4,0.2,0.6,0.1c0.8-0.4,1.8-0.1,2.3,0.7
		c1.8-0.7,2.4-0.4,2.9,1.4c0.6,2.4,1.6,4.7,1,7.2c-0.1,0.5,0.3,1.2,0.6,1.8c0.2,0.5,0.5,1.1,0.8,1.8l-9.3,2.5
		c-0.1-0.2-0.2-0.2-0.2-0.3c-0.3-2.2-1.8-3.5-3.4-5c-1.6-1.7-2.9-3.5-4.1-5.5c-0.4-0.6-0.3-1.5,0.4-2c0,0,0.1,0,0.1-0.1
		c0.6-0.5,1.6-0.4,2.1,0.2c0,0,0,0,0,0c0.5,0.6,1,1.1,1.6,1.5c-0.6-2.4-1.3-4.8-1.9-7.3c-0.3-1.2-0.7-2.5-1-3.7
		c-0.3-1.2,0.1-2,1-2.3c1-0.3,1.7,0.2,2.1,1.4C1075.4,1838.8,1076,1841.2,1076.7,1843.7z"/>
	<path id="Path_8224" class="st0" d="M1073.8,1828.7c2.7,0.2,5.1,1.8,6.2,4.2c1.3,2.5,1.1,5.6-0.5,7.9c-0.1,0.2-0.2,0.4-0.4,0.5
		c-0.3,0.1-0.6,0.2-0.9,0.2c0-0.3-0.1-0.7,0.1-0.9c0.9-1.2,1.4-2.7,1.4-4.2c0-3.2-2.4-6-5.6-6.5c-3.4-0.5-6.6,1.7-7.4,5
		c-0.7,3.2,1,6.5,4.1,7.6c0.3,0.1,0.5,0.2,0.8,0.3c0.3,0.2,0.5,0.5,0.8,0.7c-0.4,0.1-0.8,0.4-1.1,0.4c-2.8-0.6-4.9-2.7-5.6-5.5
		C1064.3,1833.5,1068,1828.7,1073.8,1828.7z"/>
	<path id="Path_8225" class="st0" d="M1073.1,1831.9c2.5,0,4.5,1.9,4.6,4.4c0,0.5-0.1,0.9-0.2,1.3c-0.1,0.4-0.6,0.7-0.9,1
		c-0.1-0.4-0.2-0.8-0.2-1.3c0.5-1.7-0.4-3.4-2-4.1c-1.5-0.6-3.2-0.1-4.1,1.1c-1,1.4-0.8,3.4,0.5,4.5c0.3,0.3,0.3,0.8,0.4,1.2
		c-0.4,0-0.9-0.2-1.3-0.4c-1.4-1.3-1.8-3.3-1.1-5C1069.5,1833,1071.2,1831.8,1073.1,1831.9z"/>
</g>
</svg>
