<?xml version="1.0" encoding="utf-8"?>
<!-- Generator: Adobe Illustrator 19.2.1, SVG Export Plug-In . SVG Version: 6.00 Build 0)  -->
<svg version="1.1" id="Layer_1" xmlns="http://www.w3.org/2000/svg" xmlns:xlink="http://www.w3.org/1999/xlink" x="0px" y="0px"
	 viewBox="0 0 72 79" style="enable-background:new 0 0 72 79;" xml:space="preserve">
<style type="text/css">
	.st0{fill:#FBE200;}
	.st1{fill:#FFFFFF;}
	.st2{fill:#343434;}
</style>
<g id="Group_5566" transform="translate(21210.969 -2560.742)">
	<circle id="Ellipse_3418" class="st0" cx="-21175.3" cy="2604" r="35.7"/>
	
		<ellipse id="Ellipse_3419" transform="matrix(0.121 -0.9927 0.9927 0.121 -21198.8418 -18730.7461)" class="st1" cx="-21175.3" cy="2604" rx="27.1" ry="27.1"/>
	
		<ellipse id="Ellipse_3420" transform="matrix(0.9737 -0.2278 0.2278 0.9737 -1149.6097 -4754.3574)" class="st0" cx="-21175.3" cy="2604" rx="19.3" ry="19.3"/>
	<path id="Path_7455" class="st1" d="M-21162,2604c0,7.3-6,13.3-13.3,13.3s-13.3-6-13.3-13.3c0-7.3,6-13.3,13.3-13.3l0,0
		C-21167.9,2590.7-21162,2596.7-21162,2604z"/>
	<path id="Path_7456" class="st0" d="M-21169.1,2604c0,3.4-2.8,6.1-6.1,6.1s-6.1-2.7-6.1-6.1c0-3.4,2.8-6.1,6.1-6.1
		S-21169.1,2600.6-21169.1,2604L-21169.1,2604z"/>
	<path id="Path_7481" class="st1" d="M-21143.8,2563c-0.8-0.3-3.2-1.6-5.1,3c-1.8,4.4-3.8,10.3-3.8,10.3s4.8-4,8.2-7.3
		C-21140.9,2565.6-21143.1,2563.5-21143.8,2563z"/>
	<path id="Path_7482" class="st2" d="M-21147.9,2566.5l-4.6,4.8c-1.4,1.4-2.7,3-3.8,4.6l-18.9,28.1l21.4-23.1
		c2.4-2.6,4.4-5.6,5.9-8.8l1.8-4C-21146.8,2567.7-21147.4,2567.2-21147.9,2566.5z"/>
	<path id="Path_7483" class="st0" d="M-21153.5,2576.7c0,0-3.1-8.7-0.2-14.3c2.9-5.6,6.7,5.1,6.7,5.1L-21153.5,2576.7z"/>
	<path id="Path_7484" class="st0" d="M-21153.5,2576.6c0,0,9.2,0,13.5-4.7s-7-4.6-7-4.6L-21153.5,2576.6z"/>
</g>
</svg>
